<svg width="400" height="200" viewBox="0 0 400 200" fill="none" xmlns="http://www.w3.org/2000/svg">
<g id="Group 7">
<g id="Group 4">
<circle id="Oval" cx="142" cy="100" r="100" fill="#2C6269"/>
<path id="Combined Shape" fill-rule="evenodd" clip-rule="evenodd" d="M300 200C355.228 200 400 155.228 400 100C400 44.7715 355.228 0 300 0C244.772 0 200 44.7715 200 100C200 155.228 244.772 200 300 200ZM300 133C318.225 133 333 118.225 333 100C333 81.7746 318.225 67 300 67C281.775 67 267 81.7746 267 100C267 118.225 281.775 133 300 133Z" fill="#012F34"/>
<rect id="Rectangle" x="400" y="43" width="43" height="43" transform="rotate(-180 400 43)" fill="#79C8C7"/>
<path id="Combined Shape Copy" fill-rule="evenodd" clip-rule="evenodd" d="M275.513 200C330.742 200 375.513 155.228 375.513 100C375.513 44.7715 330.742 0 275.513 0C220.285 0 175.513 44.7715 175.513 100C175.513 155.228 220.285 200 275.513 200ZM275.513 133C293.739 133 308.513 118.225 308.513 100C308.513 81.7746 293.739 67 275.513 67C257.288 67 242.513 81.7746 242.513 100C242.513 118.225 257.288 133 275.513 133Z" fill="#F67E7E"/>
</g>
<path id="Combined Shape_2" fill-rule="evenodd" clip-rule="evenodd" d="M100 81H0V85H100V81ZM100 89H0V93H100V89ZM0 97H100V101H0V97ZM100 105H0V109H100V105ZM0 113H100V117H0V113ZM100 121H0V125H100V121Z" fill="#79C8C7"/>
</g>
</svg>
