<svg width="97" height="200" viewBox="0 0 97 200" fill="none" xmlns="http://www.w3.org/2000/svg">
<rect width="100" height="100" transform="matrix(1 0 0 -1 -3 100)" fill="#2C6269"/>
<path fill-rule="evenodd" clip-rule="evenodd" d="M-3 200C-58.2285 200 -103 155.228 -103 100C-103 44.7715 -58.2285 0 -3 0C52.2285 0 97 44.7715 97 100C97 155.228 52.2285 200 -3 200ZM-3 133C-21.2254 133 -36 118.225 -36 100C-36 81.7746 -21.2254 67 -3 67C15.2254 67 30 81.7746 30 100C30 118.225 15.2254 133 -3 133Z" fill="#012F34"/>
<path fill-rule="evenodd" clip-rule="evenodd" d="M-3 56H97V60H-3V56ZM-3 64H97V68H-3V64ZM97 72H-3V76H97V72ZM-3 80H97V84H-3V80ZM97 88H-3V92H97V88ZM-3 96H97V100H-3V96Z" fill="#79C8C7"/>
<path fill-rule="evenodd" clip-rule="evenodd" d="M97 100H93V104H97V100ZM86 100H90V104H86V100ZM86 108H90V112H86V108ZM90 116H86V120H90V116ZM86 124H90V128H86V124ZM90 132H86V136H90V132ZM86 140H90V144H86V140ZM83 100H79V104H83V100ZM83 108H79V112H83V108ZM79 116H83V120H79V116ZM83 124H79V128H83V124ZM79 132H83V136H79V132ZM83 140H79V144H83V140ZM97 108H93V112H97V108ZM76 100H72V104H76V100ZM76 108H72V112H76V108ZM72 116H76V120H72V116ZM76 124H72V128H76V124ZM72 132H76V136H72V132ZM76 140H72V144H76V140ZM97 116H93V120H97V116ZM69 100H65V104H69V100ZM69 108H65V112H69V108ZM65 116H69V120H65V116ZM69 124H65V128H69V124ZM65 132H69V136H65V132ZM69 140H65V144H69V140ZM97 124H93V128H97V124ZM62 100H58V104H62V100ZM62 108H58V112H62V108ZM58 116H62V120H58V116ZM62 124H58V128H62V124ZM58 132H62V136H58V132ZM62 140H58V144H62V140ZM97 132H93V136H97V132ZM55 100H51V104H55V100ZM55 108H51V112H55V108ZM51 116H55V120H51V116ZM55 124H51V128H55V124ZM51 132H55V136H51V132ZM55 140H51V144H55V140ZM97 140H93V144H97V140ZM48 100H44V104H48V100ZM48 108H44V112H48V108ZM44 116H48V120H44V116ZM48 124H44V128H48V124ZM44 132H48V136H44V132ZM48 140H44V144H48V140Z" fill="#F67E7E"/>
</svg>
